<svg xmlns="http://www.w3.org/2000/svg" viewBox="0 0 33.64 83.19"><defs></defs><g id="Layer_2" data-name="Layer 2"><g id="Layer_1-2" data-name="Layer 1"><g class="cls-1"><rect class="cls-2" y="19.5" width="3.46" height="3.46"/><rect class="cls-2" x="10.06" y="19.5" width="3.46" height="3.46"/><rect class="cls-2" x="20.12" y="19.5" width="3.46" height="3.46"/><rect class="cls-2" x="30.18" y="19.5" width="3.46" height="3.46"/><rect class="cls-2" y="29.54" width="3.46" height="3.46"/><rect class="cls-2" x="10.06" y="29.54" width="3.46" height="3.46"/><rect class="cls-2" x="20.12" y="29.54" width="3.46" height="3.46"/><rect class="cls-2" x="30.18" y="29.54" width="3.46" height="3.46"/><rect class="cls-2" y="39.58" width="3.46" height="3.46"/><rect class="cls-2" x="10.06" y="39.58" width="3.46" height="3.46"/><rect class="cls-2" x="20.12" y="39.58" width="3.46" height="3.46"/><rect class="cls-2" x="30.18" y="39.58" width="3.46" height="3.46"/><rect class="cls-2" y="49.62" width="3.46" height="3.46"/><rect class="cls-2" x="10.06" y="49.62" width="3.46" height="3.46"/><rect class="cls-2" x="20.12" y="49.62" width="3.46" height="3.46"/><rect class="cls-2" x="30.18" y="49.62" width="3.46" height="3.46"/><rect class="cls-2" y="59.66" width="3.46" height="3.46"/><rect class="cls-2" x="10.06" y="59.66" width="3.46" height="3.46"/><rect class="cls-2" x="20.12" y="59.66" width="3.46" height="3.46"/><rect class="cls-2" x="30.18" y="59.66" width="3.46" height="3.46"/><rect class="cls-2" y="69.7" width="3.46" height="3.46"/><rect class="cls-2" x="10.06" y="69.7" width="3.46" height="3.46"/><rect class="cls-2" x="20.12" y="69.7" width="3.46" height="3.46"/><rect class="cls-2" x="30.18" y="69.7" width="3.46" height="3.46"/><rect class="cls-2" y="79.73" width="3.46" height="3.46"/><rect class="cls-2" x="10.06" y="79.73" width="3.46" height="3.46"/><rect class="cls-2" x="20.12" y="79.73" width="3.46" height="3.46"/><rect class="cls-2" x="30.18" y="79.73" width="3.46" height="3.46"/><rect class="cls-2" y="9.75" width="3.46" height="3.46"/><rect class="cls-2" x="10.06" y="9.75" width="3.46" height="3.46"/><rect class="cls-2" x="20.12" y="9.75" width="3.46" height="3.46"/><rect class="cls-2" x="30.18" y="9.75" width="3.46" height="3.46"/><rect class="cls-2" width="3.46" height="3.46"/><rect class="cls-2" x="10.06" width="3.46" height="3.46"/><rect class="cls-2" x="20.12" width="3.46" height="3.46"/><rect class="cls-2" x="30.18" width="3.46" height="3.46"/></g></g></g></svg>