<svg xmlns="http://www.w3.org/2000/svg" viewBox="0 0 50.1 53.8"><defs><style>.cls-1{fill:#fff;}</style></defs><g id="Layer_2" data-name="Layer 2"><g id="Layer_1-2" data-name="Layer 1"><circle class="cls-1" cx="0.5" cy="0.5" r="0.5"/><circle class="cls-1" cx="0.5" cy="7.1" r="0.5"/><circle class="cls-1" cx="0.5" cy="13.7" r="0.5"/><circle class="cls-1" cx="0.5" cy="20.3" r="0.5"/><circle class="cls-1" cx="0.5" cy="26.9" r="0.5"/><circle class="cls-1" cx="0.5" cy="33.5" r="0.5"/><circle class="cls-1" cx="0.5" cy="40.1" r="0.5"/><circle class="cls-1" cx="0.5" cy="46.7" r="0.5"/><circle class="cls-1" cx="0.5" cy="53.3" r="0.5"/><path class="cls-1" d="M7.9.5a.47.47,0,0,1-.5.5C7.1,1,7,.7,7,.5A.54.54,0,0,1,7.5,0C7.8,0,7.9.2,7.9.5Z"/><path class="cls-1" d="M7.9,7.1a.47.47,0,0,1-.5.5c-.3,0-.4-.3-.4-.5a.54.54,0,0,1,.5-.5C7.8,6.6,7.9,6.8,7.9,7.1Z"/><path class="cls-1" d="M7.9,13.7a.47.47,0,0,1-.5.5c-.3,0-.4-.3-.4-.5a.47.47,0,0,1,.5-.5C7.8,13.2,7.9,13.4,7.9,13.7Z"/><path class="cls-1" d="M7.9,20.3a.47.47,0,0,1-.5.5c-.3,0-.4-.3-.4-.5a.47.47,0,0,1,.5-.5C7.8,19.8,7.9,20,7.9,20.3Z"/><path class="cls-1" d="M7.9,26.9a.47.47,0,0,1-.5.5c-.3,0-.4-.3-.4-.5a.47.47,0,0,1,.5-.5C7.8,26.4,7.9,26.6,7.9,26.9Z"/><path class="cls-1" d="M7.9,33.5a.47.47,0,0,1-.5.5c-.3,0-.4-.3-.4-.5a.47.47,0,0,1,.5-.5C7.8,33,7.9,33.2,7.9,33.5Z"/><path class="cls-1" d="M7.9,40.1a.47.47,0,0,1-.5.5c-.3,0-.4-.3-.4-.5a.54.54,0,0,1,.5-.5C7.8,39.6,7.9,39.8,7.9,40.1Z"/><path class="cls-1" d="M7.9,46.7a.47.47,0,0,1-.5.5c-.3,0-.4-.3-.4-.5a.47.47,0,0,1,.5-.5C7.8,46.2,7.9,46.4,7.9,46.7Z"/><path class="cls-1" d="M7.9,53.3a.47.47,0,0,1-.5.5c-.3,0-.4-.3-.4-.5a.54.54,0,0,1,.5-.5C7.8,52.8,7.9,53,7.9,53.3Z"/><circle class="cls-1" cx="14.4" cy="0.5" r="0.5"/><circle class="cls-1" cx="14.4" cy="7.1" r="0.5"/><circle class="cls-1" cx="14.4" cy="13.7" r="0.5"/><circle class="cls-1" cx="14.4" cy="20.3" r="0.5"/><circle class="cls-1" cx="14.4" cy="26.9" r="0.5"/><circle class="cls-1" cx="14.4" cy="33.5" r="0.5"/><circle class="cls-1" cx="14.4" cy="40.1" r="0.5"/><circle class="cls-1" cx="14.4" cy="46.7" r="0.5"/><circle class="cls-1" cx="14.4" cy="53.3" r="0.5"/><path class="cls-1" d="M21.9.5a.5.5,0,0,1-1,0,.5.5,0,0,1,1,0Z"/><path class="cls-1" d="M21.9,7.1a.5.5,0,1,1-.5-.5A.47.47,0,0,1,21.9,7.1Z"/><path class="cls-1" d="M21.9,13.7a.5.5,0,1,1-.5-.5A.47.47,0,0,1,21.9,13.7Z"/><path class="cls-1" d="M21.9,20.3a.5.5,0,1,1-.5-.5A.47.47,0,0,1,21.9,20.3Z"/><path class="cls-1" d="M21.9,26.9a.5.5,0,1,1-.5-.5A.47.47,0,0,1,21.9,26.9Z"/><path class="cls-1" d="M21.9,33.5a.5.5,0,1,1-.5-.5A.47.47,0,0,1,21.9,33.5Z"/><path class="cls-1" d="M21.9,40.1a.5.5,0,1,1-.5-.5A.47.47,0,0,1,21.9,40.1Z"/><path class="cls-1" d="M21.9,46.7a.5.5,0,1,1-.5-.5A.47.47,0,0,1,21.9,46.7Z"/><path class="cls-1" d="M21.9,53.3a.5.5,0,1,1-.5-.5A.47.47,0,0,1,21.9,53.3Z"/><path class="cls-1" d="M29.2.5a.5.5,0,0,1-1,0,.47.47,0,0,1,.5-.5A.54.54,0,0,1,29.2.5Z"/><path class="cls-1" d="M29.2,7.1a.5.5,0,1,1-.5-.5A.54.54,0,0,1,29.2,7.1Z"/><path class="cls-1" d="M29.2,13.7a.5.5,0,1,1-.5-.5A.54.54,0,0,1,29.2,13.7Z"/><path class="cls-1" d="M29.2,20.3a.5.5,0,1,1-.5-.5A.54.54,0,0,1,29.2,20.3Z"/><path class="cls-1" d="M29.2,26.9a.5.5,0,1,1-.5-.5A.54.54,0,0,1,29.2,26.9Z"/><path class="cls-1" d="M29.2,33.5a.5.5,0,1,1-.5-.5A.54.54,0,0,1,29.2,33.5Z"/><path class="cls-1" d="M29.2,40.1a.5.5,0,1,1-.5-.5A.54.54,0,0,1,29.2,40.1Z"/><path class="cls-1" d="M29.2,46.7a.5.5,0,1,1-.5-.5A.54.54,0,0,1,29.2,46.7Z"/><path class="cls-1" d="M29.2,53.3a.5.5,0,1,1-.5-.5A.54.54,0,0,1,29.2,53.3Z"/><circle class="cls-1" cx="35.7" cy="0.5" r="0.5"/><circle class="cls-1" cx="35.7" cy="7.1" r="0.5"/><circle class="cls-1" cx="35.7" cy="13.7" r="0.5"/><circle class="cls-1" cx="35.7" cy="20.3" r="0.5"/><circle class="cls-1" cx="35.7" cy="26.9" r="0.5"/><circle class="cls-1" cx="35.7" cy="33.5" r="0.5"/><circle class="cls-1" cx="35.7" cy="40.1" r="0.5"/><circle class="cls-1" cx="35.7" cy="46.7" r="0.5"/><circle class="cls-1" cx="35.7" cy="53.3" r="0.5"/><path class="cls-1" d="M43.1.5a.5.5,0,0,1-1,0,.5.5,0,0,1,1,0Z"/><path class="cls-1" d="M43.1,7.1a.5.5,0,1,1-.5-.5A.47.47,0,0,1,43.1,7.1Z"/><path class="cls-1" d="M43.1,13.7a.5.5,0,1,1-.5-.5A.47.47,0,0,1,43.1,13.7Z"/><path class="cls-1" d="M43.1,20.3a.5.5,0,1,1-.5-.5A.47.47,0,0,1,43.1,20.3Z"/><path class="cls-1" d="M43.1,26.9a.5.5,0,1,1-.5-.5A.47.47,0,0,1,43.1,26.9Z"/><path class="cls-1" d="M43.1,33.5a.5.5,0,1,1-.5-.5A.47.47,0,0,1,43.1,33.5Z"/><path class="cls-1" d="M43.1,40.1a.5.5,0,1,1-.5-.5A.47.47,0,0,1,43.1,40.1Z"/><path class="cls-1" d="M43.1,46.7a.5.5,0,1,1-.5-.5A.47.47,0,0,1,43.1,46.7Z"/><path class="cls-1" d="M43.1,53.3a.5.5,0,1,1-.5-.5A.47.47,0,0,1,43.1,53.3Z"/><circle class="cls-1" cx="49.6" cy="0.5" r="0.5"/><circle class="cls-1" cx="49.6" cy="7.1" r="0.5"/><circle class="cls-1" cx="49.6" cy="13.7" r="0.5"/><circle class="cls-1" cx="49.6" cy="20.3" r="0.5"/><circle class="cls-1" cx="49.6" cy="26.9" r="0.5"/><circle class="cls-1" cx="49.6" cy="33.5" r="0.5"/><circle class="cls-1" cx="49.6" cy="40.1" r="0.5"/><circle class="cls-1" cx="49.6" cy="46.7" r="0.5"/><circle class="cls-1" cx="49.6" cy="53.3" r="0.5"/></g></g></svg>