<svg id="Layer_1" data-name="Layer 1" xmlns="http://www.w3.org/2000/svg" viewBox="0 0 943 669"><rect x="0.5" y="0.5" width="279" height="562" rx="32.4"/><path d="M251.1,120A31.94,31.94,0,0,1,283,151.9V649.1A31.94,31.94,0,0,1,251.1,681H36.9A31.94,31.94,0,0,1,5,649.1V151.9A31.94,31.94,0,0,1,36.9,120H251.1m0-1H36.9A32.9,32.9,0,0,0,4,151.9V649.1A32.9,32.9,0,0,0,36.9,682H251.1A32.9,32.9,0,0,0,284,649.1V151.9A32.9,32.9,0,0,0,251.1,119Z" transform="translate(-4 -119)"/><rect x="333.5" y="103.5" width="277" height="565" rx="32.4"/><path d="M582.1,223A31.94,31.94,0,0,1,614,254.9V755.1A31.94,31.94,0,0,1,582.1,787H369.9A31.94,31.94,0,0,1,338,755.1V254.9A31.94,31.94,0,0,1,369.9,223H582.1m0-1H369.9A32.9,32.9,0,0,0,337,254.9V755.1A32.9,32.9,0,0,0,369.9,788H582.1A32.9,32.9,0,0,0,615,755.1V254.9A32.9,32.9,0,0,0,582.1,222Z" transform="translate(-4 -119)"/><rect x="666.5" y="54.5" width="276" height="539" rx="32.4"/><path d="M914.1,174A31.94,31.94,0,0,1,946,205.9V680.1A31.94,31.94,0,0,1,914.1,712H702.9A31.94,31.94,0,0,1,671,680.1V205.9A31.94,31.94,0,0,1,702.9,174H914.1m0-1H702.9A32.9,32.9,0,0,0,670,205.9V680.1A32.9,32.9,0,0,0,702.9,713H914.1A32.9,32.9,0,0,0,947,680.1V205.9A32.9,32.9,0,0,0,914.1,173Z" transform="translate(-4 -119)"/></svg>